PathFileType	4	(X/Y/Z)	/Users/itak/Documents/Research/Walk-IL/dataset/trc/00204_00008.trc
DataRate	CameraRate	NumFrames	NumMarkers	Units	OrigDataRate	OrigDataStartFrame	OrigNumFrames
100.000000	100.000000	4	53	mm	100.000000	374	499
Frame#	Time	RPSI			LPSI			L3			STRN			T10			C7			CLAV			RBAK			LBAK			LSHO			LUPA			LAEL			LAOL			LWTS			LWPS			LFRA			LIFD			LHPS			LHTS			RSHO			RUPA			RAEL			RAOL			RWTS			RWPS			RFRA			RIFD			RHTS			RHPS			RBHD			LFHD			RFHD			LBHD			LHIP			RHIP			RASI			LASI			LKNE			LTHI			LANK			LTIP			LTOE			LMT1			LMT5			LHEE			RKNE			RTHI			RANK			RTIP			RTOE			RMT1			RMT5			RHEE			
		X1	Y1	Z1	X2	Y2	Z2	X3	Y3	Z3	X4	Y4	Z4	X5	Y5	Z5	X6	Y6	Z6	X7	Y7	Z7	X8	Y8	Z8	X9	Y9	Z9	X10	Y10	Z10	X11	Y11	Z11	X12	Y12	Z12	X13	Y13	Z13	X14	Y14	Z14	X15	Y15	Z15	X16	Y16	Z16	X17	Y17	Z17	X18	Y18	Z18	X19	Y19	Z19	X20	Y20	Z20	X21	Y21	Z21	X22	Y22	Z22	X23	Y23	Z23	X24	Y24	Z24	X25	Y25	Z25	X26	Y26	Z26	X27	Y27	Z27	X28	Y28	Z28	X29	Y29	Z29	X30	Y30	Z30	X31	Y31	Z31	X32	Y32	Z32	X33	Y33	Z33	X34	Y34	Z34	X35	Y35	Z35	X36	Y36	Z36	X37	Y37	Z37	X38	Y38	Z38	X39	Y39	Z39	X40	Y40	Z40	X41	Y41	Z41	X42	Y42	Z42	X43	Y43	Z43	X44	Y44	Z44	X45	Y45	Z45	X46	Y46	Z46	X47	Y47	Z47	X48	Y48	Z48	X49	Y49	Z49	X50	Y50	Z50	X51	Y51	Z51	X52	Y52	Z52	X53	Y53	Z53	

375	3.74	370.6170349121094	1024.613403320312	515.9664306640625	493.3954162597656	1027.00341796875	524.872314453125	425.587158203125	1058.258544921875	515.427001953125	424.8404235839844	1296.154541015625	754.8223876953125	427.5110168457031	1213.28173828125	460.1417846679688	444.55615234375	1487.738525390625	502.7110595703125	438.73486328125	1406.580932617188	716.1095581054688	330.4916381835938	1310.72314453125	450.403076171875	543.5117797851562	1459.973022460938	497.597900390625	622.0891723632812	1453.041137695312	574.19091796875	692.5028686523438	1319.433715820312	544.4940795898438	708.917724609375	1103.989990234375	558.83935546875	627.9356689453125	1085.865600585938	524.0708618164062	705.051025390625	869.7774658203125	670.0419311523438	729.4679565429688	852.4628295898438	581.5879516601562	727.4234619140625	994.5692749023438	569.0760498046875	683.6567993164062	685.2915649414062	676.4883422851562	731.708251953125	782.658935546875	599.7946166992188	727.640869140625	789.6654052734375	672.9843139648438	263.1769409179688	1480.098510742188	568.10009765625	192.2658386230469	1415.735717773438	551.6249389648438	129.0495452880859	1132.117309570312	542.0919189453125	226.8508148193359	1118.451293945312	544.8124389648438	120.1724624633789	902.03271484375	677.2045288085938	77.53410339355469	891.9741821289062	598.6116943359375	103.7223739624023	1062.845581054688	565.4254760742188	131.4805450439453	710.7412719726562	677.9188842773438	102.8737335205078	806.866943359375	697.582275390625	70.05615234375	808.4302978515625	622.8778076171875	376.3788146972656	1668.766357421875	578.3792114257812	520.7542724609375	1691.16455078125	739.80419921875	393.2339782714844	1696.836303710938	751.0850219726562	513.1080322265625	1671.411743164062	560.7694091796875	607.4303588867188	988.09521484375	651.4840087890625	222.9556427001953	994.986328125	663.32666015625	276.3239440917969	1029.695434570312	743.6919555664062	533.35498046875	1033.406372070312	762.6727905273438	572.2425537109375	515.5178833007812	848.4507446289062	600.892822265625	651.5620727539062	796.7504272460938	594.01708984375	37.23580551147461	820.4352416992188	593.1112670898438	283.2014770507812	846.9823608398438	538.0289916992188	54.12506484985352	1030.362670898438	497.4334411621094	51.79318237304688	977.52099609375	615.094482421875	33.67202758789062	932.04296875	533.1986694335938	41.67634582519531	761.2218017578125	221.8263549804688	490.9111328125	631.1009521484375	217.0214233398438	762.3897705078125	695.6586303710938	244.4569396972656	167.0801086425781	241.6528778076172	233.4577941894531	376.4967346191406	571.6728515625	298.0530395507812	35.00571441650391	377.6276245117188	335.5091857910156	60.91651916503906	342.7249450683594	218.8254241943359	67.14503479003906	298.6668395996094	309.6559143066406	218.428955078125	221.7531127929688	
376	3.75	375.5609741210938	1025.606689453125	523.6786499023438	498.2916870117188	1028.337768554688	533.6445922851562	430.5765686035156	1059.542236328125	523.7705078125	427.3934326171875	1297.231689453125	763.328857421875	433.0885314941406	1214.56982421875	468.5714721679688	449.8813171386719	1488.8271484375	511.4546203613281	441.8455200195312	1407.609985351562	724.8286743164062	336.1869201660156	1312.086547851562	457.9089660644531	548.9303588867188	1460.984008789062	507.3070678710938	626.6565551757812	1453.722290039062	584.8128662109375	697.215576171875	1320.052856445312	555.9154052734375	713.8176879882812	1104.62939453125	570.7478637695312	633.3328857421875	1086.426147460938	534.7144775390625	708.318603515625	870.67822265625	682.35791015625	734.0570678710938	853.1493530273438	594.3457641601562	732.1907958984375	995.217529296875	581.4551391601562	686.8997192382812	686.2249145507812	688.9745483398438	736.0618286132812	783.408203125	612.7606811523438	730.8767700195312	790.5962524414062	685.83251953125	267.8734741210938	1481.491821289062	575.1185302734375	197.1328735351562	1417.109497070312	558.036865234375	132.9165954589844	1133.8134765625	548.1804809570312	230.6571044921875	1119.879760742188	551.4346313476562	122.862434387207	903.8706665039062	683.4207153320312	80.66900634765625	893.7333984375	604.6021118164062	107.353874206543	1064.550170898438	571.4366455078125	134.0386962890625	712.5598754882812	684.4629516601562	105.3410491943359	808.7650756835938	703.81982421875	73.00457763671875	810.2389526367188	628.966552734375	381.4575805664062	1670.25146484375	586.6083984375	524.8733520507812	1692.019287109375	748.9315185546875	397.2958068847656	1698.192138671875	759.4126586914062	518.3026123046875	1672.376953125	569.8685913085938	610.9111328125	988.9290771484375	661.5574340820312	225.6857452392578	996.4689331054688	669.6937866210938	278.8944702148438	1031.083251953125	750.1998901367188	535.8080444335938	1034.107177734375	772.0263671875	573.3825073242188	515.1405639648438	854.78759765625	602.570556640625	651.3837280273438	803.9458618164062	593.7182006835938	37.66547012329102	820.7897338867188	593.5125122070312	282.650390625	850.1578979492188	538.0541381835938	52.7426872253418	1030.940063476562	497.1462097167969	50.98974227905273	978.1007690429688	615.1898193359375	33.57079315185547	932.4054565429688	532.9617919921875	42.01301956176758	761.5980224609375	222.5272064208984	491.4384765625	645.8200073242188	219.1673278808594	764.0897216796875	704.7311401367188	249.4218292236328	175.8545989990234	251.9558258056641	234.58837890625	377.7677307128906	586.0303344726562	293.7041931152344	34.75051116943359	385.579345703125	333.5308837890625	63.84122467041016	352.9047546386719	219.8561706542969	74.78275299072266	304.4683837890625	316.4543151855469	225.6481781005859	235.0285491943359	
377	3.76	380.2582092285156	1026.75830078125	531.0081787109375	502.9040222167969	1029.640502929688	542.1249389648438	435.3281555175781	1060.871948242188	531.8609619140625	429.7969055175781	1298.247314453125	771.6318969726562	438.5716857910156	1215.916259765625	476.8023376464844	455.1308288574219	1490.013671875	520.068359375	444.7936401367188	1408.591186523438	733.3798217773438	341.8306274414062	1313.509399414062	465.2244567871094	554.25048828125	1462.083129882812	516.9624633789062	631.0774536132812	1454.453369140625	595.3734741210938	701.8007202148438	1320.730590820312	567.2973022460938	718.6593627929688	1105.34814453125	582.6693115234375	638.7286376953125	1087.0556640625	545.3544921875	711.5029907226562	871.73974609375	694.7927856445312	738.6290893554688	853.9188232421875	607.2855224609375	736.9105834960938	995.9517822265625	593.9197998046875	690.229736328125	687.3468017578125	701.8427734375	740.429443359375	784.266357421875	625.998779296875	734.1357421875	791.7506713867188	698.9226684570312	272.4555969238281	1482.864135742188	581.9439086914062	201.9140930175781	1418.446166992188	564.1968994140625	136.6861877441406	1135.42236328125	554.1107177734375	234.3614044189453	1121.26318359375	557.852783203125	125.7445220947266	905.8292236328125	689.8570556640625	83.85083770751953	895.4691162109375	610.9043579101562	110.9184417724609	1066.167724609375	577.4076538085938	136.8572692871094	714.5484008789062	691.6119384765625	108.0660858154297	810.8473510742188	710.4917602539062	76.07491302490234	812.0593872070312	635.5638427734375	386.3627014160156	1671.763793945312	594.7962036132812	528.8539428710938	1692.82275390625	757.9730834960938	401.2327270507812	1699.525634765625	767.6848754882812	523.309326171875	1673.349975585938	578.8826293945312	614.0504150390625	989.55810546875	670.96240234375	228.3720550537109	997.9154663085938	675.8291625976562	281.4212341308594	1032.43505859375	756.4761962890625	538.1767578125	1034.719848632812	780.985107421875	574.3916625976562	514.820068359375	861.0299682617188	604.01123046875	651.2874755859375	811.103759765625	593.4403686523438	38.06871795654297	821.1448364257812	593.9288330078125	282.1856689453125	853.2241821289062	538.0884399414062	51.66614532470703	1031.45703125	496.872802734375	50.39558029174805	978.62939453125	615.2489013671875	33.52334594726562	932.7197875976562	532.7523193359375	42.31189346313477	761.9525756835938	223.5785980224609	491.9842224121094	660.7213134765625	221.3546905517578	765.705810546875	713.7743530273438	254.9150085449219	184.2844390869141	263.021728515625	236.2786102294922	378.9652709960938	600.6356811523438	288.2612609863281	35.20495986938477	394.8742980957031	330.8345642089844	66.73172760009766	364.3497314453125	220.6049652099609	83.05035400390625	311.6162719726562	323.868896484375	231.8358764648438	248.6173858642578	
378	3.77	384.6909790039062	1028.009399414062	537.9755249023438	507.2108764648438	1030.867065429688	550.3541870117188	439.8333435058594	1062.20703125	539.6801147460938	432.0740356445312	1299.2109375	779.7272338867188	443.9300842285156	1217.304077148438	484.851806640625	460.2993774414062	1491.2900390625	528.550048828125	447.6058044433594	1409.538208007812	741.74609375	347.393310546875	1314.987670898438	472.3840942382812	559.4600219726562	1463.266723632812	526.561279296875	635.3465576171875	1455.258178710938	605.8377685546875	706.271728515625	1321.501708984375	578.6212768554688	723.420654296875	1106.180297851562	594.598876953125	644.0963745117188	1087.779418945312	556.0020751953125	714.6069946289062	872.9843139648438	707.3338623046875	743.168212890625	854.8091430664062	620.38818359375	741.5621948242188	996.8096923828125	606.4650268554688	693.6294555664062	688.66796875	715.0323486328125	744.7945556640625	785.2696533203125	639.47607421875	737.3880615234375	793.1394653320312	712.2234497070312	276.9349975585938	1484.232421875	588.589599609375	206.6041107177734	1419.786254882812	570.1278686523438	140.4096221923828	1136.970092773438	559.8536376953125	238.0222930908203	1122.641479492188	564.0845947265625	128.7893829345703	907.9334106445312	696.4879150390625	87.09306335449219	897.2156982421875	617.4747924804688	114.4540939331055	1067.732543945312	583.2969360351562	139.8923950195312	716.7264404296875	699.3219604492188	111.0077896118164	813.1287231445312	717.5586547851562	79.25189208984375	813.9256591796875	642.60546875	391.0863647460938	1673.282958984375	602.9319458007812	532.6817016601562	1693.583129882812	766.9273071289062	405.0301513671875	1700.827758789062	775.8914794921875	528.1192016601562	1674.323486328125	587.8056030273438	616.810546875	989.940673828125	679.612060546875	231.0157623291016	999.3226928710938	681.7489624023438	283.9053955078125	1033.74755859375	762.536865234375	540.4820556640625	1035.276489257812	789.5396728515625	575.2990112304688	514.5382080078125	867.18701171875	605.2596435546875	651.2703247070312	818.2445678710938	593.2035522460938	38.43588638305664	821.5131225585938	594.3644409179688	281.7986755371094	856.2596435546875	538.1114501953125	50.79928970336914	1031.953979492188	496.6186218261719	49.95711517333984	979.1323852539062	615.287109375	33.50056076049805	932.99853515625	532.5929565429688	42.58657455444336	762.3125	224.9765625	492.5546875	675.7160034179688	223.5853424072266	767.2550659179688	722.8114624023438	260.7847900390625	192.0724487304688	274.8647155761719	238.4345397949219	380.0826721191406	615.4151000976562	281.998779296875	36.51632690429688	405.521728515625	327.6126403808594	69.47377014160156	376.9932250976562	221.1149749755859	91.59247589111328	320.2518005371094	331.7018432617188	236.7904968261719	262.5173950195312	
